<?xml version="1.0" standalone="no"?>
<!DOCTYPE svg PUBLIC "-//W3C//DTD SVG 20010904//EN"
 "http://www.w3.org/TR/2001/REC-SVG-20010904/DTD/svg10.dtd">
<svg version="1.0" xmlns="http://www.w3.org/2000/svg"
 width="225.000000pt" height="225.000000pt" viewBox="0 0 225.000000 225.000000"
 preserveAspectRatio="xMidYMid meet">
<metadata>
Created by potrace 1.14, written by Peter Selinger 2001-2017
</metadata>
<g transform="translate(0.000000,225.000000) scale(0.100000,-0.100000)"
fill="#000000" stroke="none">
<path d="M608 1861 c-296 -97 -418 -454 -244 -713 19 -29 199 -216 398 -416
l363 -362 371 372 c205 205 384 393 399 417 137 221 71 510 -147 652 -83 53
-165 73 -283 67 -84 -5 -104 -10 -169 -41 -40 -20 -95 -58 -122 -85 l-49 -48
-49 48 c-27 27 -82 65 -123 85 -69 34 -81 37 -181 40 -85 2 -119 -1 -164 -16z
m307 -79 c76 -36 147 -99 184 -164 l27 -46 23 44 c78 146 277 232 441 190 128
-33 216 -106 274 -226 29 -60 31 -73 31 -170 0 -171 3 -167 -417 -594 l-353
-359 -339 344 c-186 189 -351 361 -367 382 -77 105 -91 274 -32 397 39 82 86
136 154 177 118 71 256 80 374 25z"/>
</g>
</svg>
